<svg width="1440" height="1024" viewBox="0 0 1440 1024" fill="none" xmlns="http://www.w3.org/2000/svg">
<path d="M-511.092 305.235C-485.476 212.142 -439.484 244.268 -419.69 271.967C-494.739 284.158 -596.016 299.845 -400.733 265.067C-205.45 230.29 -181.807 152.42 -194.396 117.832L-11.0625 168.614C0.706259 146.879 36.2324 92.5289 84.1871 49.0132C144.131 -5.38142 213.719 86.8003 261.113 69.5504C299.028 55.7505 361.415 -45.2966 387.869 -94.0951C387.313 -104.752 390.733 -121.199 408.858 -101.734C575.925 43.3915 797.243 82.6747 770.964 -92.7512C749.941 -233.092 797.28 -279.563 823.577 -285.257C829.445 -287.392 862.638 -292.958 948.469 -298.137C1055.76 -304.61 1007.18 -259.006 1084.56 -347.668C1161.93 -436.331 1255.65 -383.182 1321.69 -361.843C1387.73 -340.504 1421.36 -393.465 1446.1 -479.26C1472.47 -590.08 1517.71 -577.457 1589.64 -531.503C1647.18 -494.74 1713.77 -420.779 1739.87 -388.394" stroke="#664960"/>
<path d="M-138.472 1468.04C-112.856 1374.94 -66.8641 1407.07 -47.0702 1434.77C-122.119 1446.96 -223.396 1462.65 -28.1127 1427.87C167.171 1393.09 190.813 1315.22 178.224 1280.63L361.558 1331.42C373.326 1309.68 408.853 1255.33 456.807 1211.82C516.751 1157.42 586.339 1249.6 633.733 1232.35C671.648 1218.55 734.035 1117.51 760.49 1068.71C759.933 1058.05 763.353 1041.6 781.478 1061.07C948.545 1206.19 1169.86 1245.48 1143.58 1070.05C1122.56 929.711 1169.9 883.239 1196.2 877.546C1202.06 875.41 1235.26 869.844 1321.09 864.666C1428.38 858.193 1379.8 903.796 1457.18 815.134C1534.55 726.472 1628.27 779.621 1694.31 800.96C1760.35 822.298 1793.98 769.337 1818.72 683.542C1845.09 572.722 1890.33 585.345 1962.26 631.299C2019.8 668.062 2086.39 742.023 2112.49 774.408" stroke="#664960"/>
<path d="M-493.35 360.607C-467.733 267.514 -421.742 299.64 -401.948 327.339C-476.996 339.53 -578.273 355.217 -382.99 320.439C-187.707 285.662 -164.064 207.792 -176.653 173.204L6.6802 223.986C18.4489 202.25 53.9751 147.901 101.93 104.385C161.873 49.9904 231.462 142.172 278.855 124.922C316.77 111.122 379.158 10.0752 405.612 -38.7233C405.056 -49.3799 408.475 -65.827 426.601 -46.3625C593.667 98.7633 814.986 138.047 788.707 -37.3793C767.683 -177.72 815.022 -224.192 841.32 -229.885C847.187 -232.021 880.381 -237.587 966.212 -242.765C1073.5 -249.238 1024.93 -203.634 1102.3 -292.297C1179.67 -380.959 1273.39 -327.81 1339.43 -306.471C1405.47 -285.132 1439.1 -338.093 1463.85 -423.889C1490.22 -534.709 1535.45 -522.085 1607.38 -476.131C1664.93 -439.368 1731.51 -365.407 1757.61 -333.022" stroke="#664960"/>
<path d="M-475.606 415.979C-449.989 322.886 -403.997 355.012 -384.203 382.712C-459.252 394.902 -560.529 410.589 -365.246 375.812C-169.963 341.035 -146.32 263.164 -158.909 228.576L24.4243 279.358C36.1931 257.623 71.7192 203.273 119.674 159.758C179.617 105.363 249.206 197.545 296.599 180.295C334.514 166.495 396.902 65.4478 423.356 16.6492C422.8 5.99267 426.219 -10.4544 444.345 9.01001C611.411 154.136 832.73 193.419 806.451 17.9932C785.428 -122.347 832.766 -168.819 859.064 -174.512C864.932 -176.648 898.125 -182.214 983.956 -187.392C1091.24 -193.865 1042.67 -148.262 1120.04 -236.924C1197.42 -325.586 1291.14 -272.437 1357.18 -251.098C1423.21 -229.76 1456.84 -282.721 1481.59 -368.516C1507.96 -479.336 1553.19 -466.712 1625.12 -420.759C1682.67 -383.996 1749.26 -310.035 1775.36 -277.65" stroke="#664960"/>
<path d="M-457.862 471.35C-432.246 378.257 -386.254 410.383 -366.46 438.083C-441.509 450.273 -542.786 465.96 -347.503 431.183C-152.22 396.405 -128.577 318.535 -141.166 283.947L42.1675 334.729C53.9362 312.994 89.4624 258.644 137.417 215.128C197.361 160.734 266.949 252.916 314.343 235.666C352.258 221.866 414.645 120.819 441.099 72.0201C440.543 61.3635 443.962 44.9165 462.088 64.3809C629.154 209.507 850.473 248.79 824.194 73.3641C803.171 -66.9766 850.51 -113.448 876.807 -119.142C882.675 -121.277 915.868 -126.843 1001.7 -132.021C1108.99 -138.494 1060.41 -92.8911 1137.79 -181.553C1215.16 -270.215 1308.88 -217.066 1374.92 -195.728C1440.96 -174.389 1474.59 -227.35 1499.33 -313.145C1525.7 -423.965 1570.94 -411.342 1642.87 -365.388C1700.41 -328.625 1767 -254.664 1793.1 -222.279" stroke="#664960"/>
<path d="M-440.118 526.721C-414.501 433.628 -368.51 465.754 -348.716 493.453C-423.765 505.644 -525.041 521.331 -329.758 486.553C-134.475 451.776 -110.832 373.906 -123.421 339.318L59.9121 390.1C71.6809 368.365 107.207 314.015 155.162 270.499C215.105 216.105 284.694 308.286 332.087 291.036C370.002 277.237 432.39 176.19 458.844 127.391C458.288 116.734 461.707 100.287 479.833 119.752C646.899 264.878 868.218 304.161 841.939 128.735C820.915 -11.6057 868.254 -58.0774 894.552 -63.7707C900.419 -65.9063 933.613 -71.4723 1019.44 -76.6506C1126.73 -83.1234 1078.16 -37.5202 1155.53 -126.182C1232.91 -214.845 1326.62 -161.695 1392.66 -140.357C1458.7 -119.018 1492.33 -171.979 1517.08 -257.774C1543.45 -368.594 1588.68 -355.971 1660.61 -310.017C1718.16 -273.254 1784.74 -199.293 1810.84 -166.908" stroke="#664960"/>
<path d="M-422.374 582.092C-396.757 488.999 -350.765 521.125 -330.972 548.825C-406.02 561.015 -507.297 576.702 -312.014 541.925C-116.731 507.148 -93.088 429.277 -105.677 394.689L77.6563 445.471C89.425 423.736 124.951 369.386 172.906 325.871C232.849 271.476 302.438 363.658 349.831 346.408C387.746 332.608 450.134 231.561 476.588 182.762C476.032 172.106 479.451 155.659 497.577 175.123C664.643 320.249 885.962 359.532 859.683 184.106C838.659 43.7656 885.998 -2.70607 912.296 -8.39932C918.164 -10.535 951.357 -16.101 1037.19 -21.2792C1144.48 -27.7521 1095.9 17.8511 1173.28 -70.8111C1250.65 -159.473 1344.37 -106.324 1410.41 -84.9854C1476.45 -63.6466 1510.08 -116.608 1534.82 -202.403C1561.19 -313.223 1606.42 -300.599 1678.36 -254.646C1735.9 -217.882 1802.49 -143.922 1828.59 -111.537" stroke="#664960"/>
<path d="M-404.63 637.465C-379.014 544.372 -333.022 576.498 -313.228 604.197C-388.277 616.388 -489.554 632.075 -294.27 597.297C-98.9872 562.52 -75.3443 484.65 -87.9333 450.062L95.3999 500.844C107.169 479.109 142.695 424.759 190.65 381.243C250.593 326.849 320.181 419.03 367.575 401.78C405.49 387.98 467.877 286.933 494.332 238.135C493.776 227.478 497.195 211.031 515.32 230.496C682.387 375.621 903.706 414.905 877.427 239.479C856.403 99.1382 903.742 52.6665 930.039 46.9732C935.907 44.8376 969.1 39.2716 1054.93 34.0933C1162.22 27.6205 1113.64 73.2237 1191.02 -15.4385C1268.39 -104.101 1362.11 -50.9515 1428.15 -29.6128C1494.19 -8.27408 1527.82 -61.2351 1552.56 -147.031C1578.94 -257.851 1624.17 -245.227 1696.1 -199.273C1753.65 -162.51 1820.23 -88.5491 1846.33 -56.164" stroke="#664960"/>
<path d="M-386.887 692.836C-361.271 599.743 -315.279 631.869 -295.485 659.568C-370.534 671.759 -471.811 687.446 -276.528 652.668C-81.2445 617.891 -57.6016 540.021 -70.1906 505.433L113.143 556.215C124.911 534.48 160.437 480.13 208.392 436.614C268.336 382.22 337.924 474.401 385.318 457.151C423.233 443.352 485.62 342.304 512.075 293.506C511.518 282.849 514.938 266.402 533.063 285.867C700.13 430.993 921.449 470.276 895.169 294.85C874.146 154.509 921.485 108.038 947.782 102.344C953.65 100.209 986.843 94.6427 1072.67 89.4644C1179.96 82.9916 1131.39 128.595 1208.76 39.9326C1286.14 -48.7296 1379.85 4.41956 1445.89 25.7583C1511.93 47.097 1545.56 -5.86403 1570.31 -91.6594C1596.68 -202.479 1641.91 -189.856 1713.84 -143.902C1771.39 -107.139 1837.97 -33.178 1864.07 -0.792926" stroke="#664960"/>
<path d="M-369.143 748.207C-343.527 655.114 -297.535 687.24 -277.741 714.94C-352.79 727.13 -454.067 742.817 -258.784 708.04C-63.5003 673.263 -39.8575 595.392 -52.4465 560.804L130.887 611.586C142.655 589.851 178.182 535.501 226.136 491.986C286.08 437.591 355.668 529.773 403.062 512.523C440.977 498.723 503.364 397.676 529.819 348.877C529.263 338.221 532.682 321.774 550.807 341.238C717.874 486.364 939.193 525.647 912.913 350.221C891.89 209.881 939.229 163.409 965.526 157.716C971.394 155.58 1004.59 150.014 1090.42 144.836C1197.71 138.363 1149.13 183.966 1226.51 95.3039C1303.88 6.64176 1397.6 59.7909 1463.64 81.1296C1529.68 102.468 1563.31 49.5073 1588.05 -36.2881C1614.42 -147.108 1659.66 -134.484 1731.59 -88.5306C1789.13 -51.7675 1855.72 22.1934 1881.82 54.5784" stroke="#664960"/>
<path d="M-351.399 803.58C-325.783 710.488 -279.791 742.613 -259.997 770.313C-335.046 782.503 -436.323 798.19 -241.039 763.413C-45.7562 728.636 -22.1134 650.765 -34.7023 616.178L148.631 666.96C160.4 645.224 195.926 590.874 243.881 547.359C303.824 492.964 373.412 585.146 420.806 567.896C458.721 554.096 521.108 453.049 547.563 404.25C547.007 393.594 550.426 377.147 568.551 396.611C735.618 541.737 956.937 581.02 930.658 405.594C909.634 265.254 956.973 218.782 983.27 213.089C989.138 210.953 1022.33 205.387 1108.16 200.209C1215.45 193.736 1166.88 239.339 1244.25 150.677C1321.62 62.0148 1415.34 115.164 1481.38 136.503C1547.42 157.841 1581.05 104.88 1605.8 19.085C1632.17 -91.735 1677.4 -79.1114 1749.33 -33.1575C1806.88 3.60559 1873.46 77.5664 1899.56 109.951" stroke="#664960"/>
<path d="M-333.655 858.951C-308.039 765.858 -262.047 797.984 -242.253 825.683C-317.302 837.874 -418.579 853.56 -223.295 818.783C-28.0121 784.006 -4.36921 706.136 -16.9582 671.548L166.375 722.33C178.144 700.594 213.67 646.245 261.625 602.729C321.568 548.334 391.156 640.516 438.55 623.266C476.465 609.466 538.853 508.419 565.307 459.621C564.751 448.964 568.17 432.517 586.296 451.981C753.362 597.107 974.681 636.391 948.402 460.965C927.378 320.624 974.717 274.152 1001.01 268.459C1006.88 266.323 1040.08 260.757 1125.91 255.579C1233.19 249.106 1184.62 294.71 1261.99 206.047C1339.37 117.385 1433.09 170.534 1499.13 191.873C1565.17 213.212 1598.79 160.251 1623.54 74.4553C1649.91 -36.3647 1695.14 -23.7411 1767.08 22.2128C1824.62 58.9759 1891.21 132.937 1917.31 165.322" stroke="#664960"/>
<path d="M-315.912 914.322C-290.295 821.229 -244.304 853.355 -224.51 881.055C-299.558 893.245 -400.835 908.932 -205.552 874.155C-10.2689 839.378 13.374 761.507 0.784975 726.919L184.118 777.701C195.887 755.966 231.413 701.616 279.368 658.101C339.311 603.706 408.9 695.888 456.293 678.638C494.208 664.838 556.596 563.791 583.05 514.992C582.494 504.336 585.913 487.889 604.039 507.353C771.105 652.479 992.424 691.762 966.145 516.336C945.121 375.996 992.46 329.524 1018.76 323.831C1024.63 321.695 1057.82 316.129 1143.65 310.951C1250.94 304.478 1202.36 350.081 1279.74 261.419C1357.11 172.757 1450.83 225.906 1516.87 247.245C1582.91 268.583 1616.54 215.622 1641.28 129.827C1667.65 19.0069 1712.89 31.6305 1784.82 77.5844C1842.36 114.348 1908.95 188.308 1935.05 220.693" stroke="#664960"/>
<path d="M-298.168 969.694C-272.551 876.601 -226.559 908.727 -206.765 936.426C-281.814 948.617 -383.091 964.304 -187.808 929.526C7.47524 894.749 31.1181 816.879 18.5291 782.291L201.862 833.073C213.631 811.338 249.157 756.988 297.112 713.472C357.055 659.078 426.644 751.259 474.037 734.009C511.952 720.209 574.34 619.162 600.794 570.364C600.238 559.707 603.657 543.26 621.783 562.725C788.849 707.85 1010.17 747.134 983.889 571.708C962.866 431.367 1010.2 384.895 1036.5 379.202C1042.37 377.067 1075.56 371.501 1161.39 366.322C1268.68 359.849 1220.11 405.453 1297.48 316.791C1374.86 228.128 1468.57 281.277 1534.61 302.616C1600.65 323.955 1634.28 270.994 1659.03 185.199C1685.4 74.3785 1730.63 87.0021 1802.56 132.956C1860.11 169.719 1926.69 243.68 1952.79 276.065" stroke="#664960"/>
<path d="M-280.423 1025.06C-254.807 931.972 -208.815 964.098 -189.021 991.797C-264.07 1003.99 -365.347 1019.67 -170.064 984.897C25.2194 950.12 48.8622 872.25 36.2733 837.662L219.606 888.444C231.375 866.708 266.901 812.359 314.856 768.843C374.8 714.448 444.388 806.63 491.782 789.38C529.697 775.58 592.084 674.533 618.538 625.735C617.982 615.078 621.401 598.631 639.527 618.095C806.593 763.221 1027.91 802.505 1001.63 627.079C980.61 486.738 1027.95 440.266 1054.25 434.573C1060.11 432.437 1093.31 426.871 1179.14 421.693C1286.43 415.22 1237.85 460.824 1315.23 372.161C1392.6 283.499 1486.32 336.648 1552.36 357.987C1618.4 379.326 1652.03 326.365 1676.77 240.569C1703.14 129.749 1748.38 142.373 1820.31 188.327C1877.85 225.09 1944.44 299.051 1970.54 331.436" stroke="#664960"/>
<path d="M-262.679 1080.44C-237.063 987.344 -191.071 1019.47 -171.277 1047.17C-246.326 1059.36 -347.603 1075.05 -152.32 1040.27C42.9635 1005.49 66.6064 927.622 54.0174 893.034L237.351 943.816C249.119 922.081 284.645 867.731 332.6 824.216C392.544 769.821 462.132 862.003 509.526 844.753C547.441 830.953 609.828 729.906 636.283 681.107C635.726 670.451 639.146 654.004 657.271 673.468C824.338 818.594 1045.66 857.877 1019.38 682.451C998.354 542.111 1045.69 495.639 1071.99 489.946C1077.86 487.81 1111.05 482.244 1196.88 477.066C1304.17 470.593 1255.6 516.196 1332.97 427.534C1410.34 338.872 1504.06 392.021 1570.1 413.36C1636.14 434.698 1669.77 381.737 1694.52 295.942C1720.89 185.122 1766.12 197.746 1838.05 243.699C1895.6 280.462 1962.18 354.423 1988.28 386.808" stroke="#664960"/>
<path d="M-244.934 1135.81C-219.318 1042.72 -173.326 1074.84 -153.532 1102.54C-228.581 1114.73 -329.858 1130.42 -134.575 1095.64C60.7086 1060.86 84.3515 982.994 71.7625 948.407L255.096 999.189C266.864 977.453 302.391 923.103 350.345 879.588C410.289 825.193 479.877 917.375 527.271 900.125C565.186 886.325 627.573 785.278 654.028 736.479C653.472 725.823 656.891 709.376 675.016 728.84C842.083 873.966 1063.4 913.249 1037.12 737.823C1016.1 597.483 1063.44 551.011 1089.74 545.318C1095.6 543.182 1128.8 537.616 1214.63 532.438C1321.92 525.965 1273.34 571.568 1350.71 482.906C1428.09 394.244 1521.81 447.393 1587.85 468.732C1653.89 490.07 1687.52 437.109 1712.26 351.314C1738.63 240.494 1783.86 253.118 1855.8 299.071C1913.34 335.835 1979.93 409.795 2006.03 442.18" stroke="#664960"/>
<path d="M-227.191 1191.18C-201.575 1098.09 -155.583 1130.21 -135.789 1157.91C-210.838 1170.1 -312.115 1185.79 -116.831 1151.01C78.4518 1116.24 102.095 1038.37 89.5057 1003.78L272.839 1054.56C284.608 1032.82 320.134 978.474 368.089 934.958C428.032 880.564 497.62 972.745 545.014 955.495C582.929 941.696 645.316 840.648 671.771 791.85C671.215 781.193 674.634 764.746 692.759 784.211C859.826 929.337 1081.14 968.62 1054.87 793.194C1033.84 652.853 1081.18 606.382 1107.48 600.688C1113.35 598.553 1146.54 592.987 1232.37 587.808C1339.66 581.336 1291.08 626.939 1368.46 538.277C1445.83 449.614 1539.55 502.764 1605.59 524.102C1671.63 545.441 1705.26 492.48 1730 406.685C1756.38 295.865 1801.61 308.488 1873.54 354.442C1931.08 391.205 1997.67 465.166 2023.77 497.551" stroke="#664960"/>
<path d="M-209.447 1246.55C-183.831 1153.46 -137.839 1185.58 -118.045 1213.28C-193.094 1225.47 -294.371 1241.16 -99.0873 1206.38C96.1959 1171.61 119.839 1093.74 107.25 1059.15L290.583 1109.93C302.352 1088.2 337.878 1033.85 385.833 990.33C445.776 935.935 515.364 1028.12 562.758 1010.87C600.673 997.067 663.061 896.02 689.515 847.222C688.959 836.565 692.378 820.118 710.504 839.582C877.57 984.708 1098.89 1023.99 1072.61 848.565C1051.59 708.225 1098.93 661.753 1125.22 656.06C1131.09 653.924 1164.28 648.358 1250.11 643.18C1357.4 636.707 1308.83 682.31 1386.2 593.648C1463.58 504.986 1557.3 558.135 1623.33 579.474C1689.37 600.813 1723 547.852 1747.75 462.056C1774.12 351.236 1819.35 363.86 1891.28 409.814C1948.83 446.577 2015.41 520.538 2041.51 552.923" stroke="#664960"/>
<path d="M-191.704 1301.92C-166.087 1208.83 -120.096 1240.96 -100.302 1268.66C-175.35 1280.85 -276.627 1296.53 -81.3441 1261.76C113.939 1226.98 137.582 1149.11 124.993 1114.52L308.326 1165.3C320.095 1143.57 355.621 1089.22 403.576 1045.7C463.519 991.306 533.108 1083.49 580.501 1066.24C618.416 1052.44 680.804 951.391 707.258 902.593C706.702 891.936 710.121 875.489 728.247 894.953C895.313 1040.08 1116.63 1079.36 1090.35 903.937C1069.33 763.596 1116.67 717.124 1142.97 711.431C1148.83 709.295 1182.03 703.729 1267.86 698.551C1375.15 692.078 1326.57 737.681 1403.95 649.019C1481.32 560.357 1575.04 613.506 1641.08 634.845C1707.12 656.184 1740.75 603.223 1765.49 517.427C1791.86 406.607 1837.09 419.231 1909.03 465.185C1966.57 501.948 2033.16 575.909 2059.26 608.294" stroke="#664960"/>
<path d="M-173.96 1357.29C-148.343 1264.2 -102.351 1296.33 -82.5575 1324.03C-157.606 1336.22 -258.883 1351.9 -63.6 1317.13C131.683 1282.35 155.326 1204.48 142.737 1169.89L326.07 1220.67C337.839 1198.94 373.365 1144.59 421.32 1101.07C481.263 1046.68 550.852 1138.86 598.245 1121.61C636.16 1107.81 698.548 1006.76 725.002 957.965C724.446 947.308 727.865 930.861 745.991 950.326C913.057 1095.45 1134.38 1134.73 1108.1 959.309C1087.07 818.968 1134.41 772.496 1160.71 766.803C1166.58 764.668 1199.77 759.102 1285.6 753.923C1392.89 747.45 1344.32 793.054 1421.69 704.391C1499.06 615.729 1592.78 668.878 1658.82 690.217C1724.86 711.556 1758.49 658.595 1783.24 572.799C1809.61 461.979 1854.84 474.603 1926.77 520.557C1984.32 557.32 2050.9 631.281 2077 663.666" stroke="#664960"/>
<path d="M-156.216 1412.67C-130.6 1319.57 -84.6082 1351.7 -64.8143 1379.4C-139.863 1391.59 -241.14 1407.28 -45.8568 1372.5C149.426 1337.72 173.069 1259.85 160.48 1225.26L343.814 1276.04C355.582 1254.31 391.108 1199.96 439.063 1156.44C499.007 1102.05 568.595 1194.23 615.989 1176.98C653.904 1163.18 716.291 1062.13 742.745 1013.34C742.189 1002.68 745.608 986.232 763.734 1005.7C930.8 1150.82 1152.12 1190.11 1125.84 1014.68C1104.82 874.339 1152.16 827.867 1178.45 822.174C1184.32 820.038 1217.51 814.473 1303.34 809.294C1410.63 802.821 1362.06 848.425 1439.43 759.762C1516.81 671.1 1610.53 724.249 1676.56 745.588C1742.6 766.927 1776.23 713.966 1800.98 628.17C1827.35 517.35 1872.58 529.974 1944.51 575.928C2002.06 612.691 2068.64 686.652 2094.74 719.037" stroke="#664960"/>
</svg>
