<?xml version="1.0" standalone="no"?>
<!DOCTYPE svg PUBLIC "-//W3C//DTD SVG 20010904//EN"
 "http://www.w3.org/TR/2001/REC-SVG-20010904/DTD/svg10.dtd">
<svg version="1.0" xmlns="http://www.w3.org/2000/svg"
 width="700.000000pt" height="700.000000pt" viewBox="0 0 700.000000 700.000000"
 preserveAspectRatio="xMidYMid meet">
<metadata>
Created by potrace 1.14, written by Peter Selinger 2001-2017
</metadata>
<g transform="translate(0.000000,700.000000) scale(0.100000,-0.100000)"
fill="#000000" stroke="none">
<path d="M1895 5597 c-3 -7 -4 -136 -3 -287 l3 -275 1228 -3 c676 -1 1227 -6
1225 -10 -2 -5 -91 -133 -198 -285 l-194 -277 -1882 0 c-1504 0 -1884 -3
-1892 -13 -14 -17 -68 -278 -87 -424 -9 -65 -19 -140 -22 -168 -4 -27 -7 -124
-6 -215 0 -115 -2 -148 -7 -110 -11 78 -2 -218 11 -360 62 -691 346 -1366 797
-1898 415 -490 949 -848 1559 -1046 369 -120 680 -169 1073 -169 644 0 1241
165 1786 493 929 560 1546 1545 1643 2620 13 148 22 423 11 355 -5 -35 -7 -3
-7 105 1 160 -1 192 -28 393 -19 146 -73 407 -87 424 -8 10 -232 13 -1064 15
l-1053 3 240 340 239 340 0 233 0 232 -1640 0 c-1313 0 -1642 -3 -1645 -13z
m3175 -255 l0 -158 -1266 -1800 -1265 -1799 1280 -3 1281 -2 0 -180 0 -180
-1530 0 -1530 0 0 163 1 162 1259 1790 c693 985 1260 1793 1260 1798 0 4 -574
7 -1275 7 l-1275 0 0 180 0 180 1530 0 1530 0 0 -158z m-4179 -4009 c13 -16
12 -17 -3 -4 -10 7 -18 15 -18 17 0 8 8 3 21 -13z m5239 13 c0 -2 -8 -10 -17
-17 -16 -13 -17 -12 -4 4 13 16 21 21 21 13z m-5160 -101 c13 -14 21 -25 18
-25 -2 0 -15 11 -28 25 -13 14 -21 25 -18 25 2 0 15 -11 28 -25z m5090 22 c0
-2 -12 -14 -27 -28 l-28 -24 24 28 c23 25 31 32 31 24z m-4880 -232 c13 -14
21 -25 18 -25 -2 0 -15 11 -28 25 -13 14 -21 25 -18 25 2 0 15 -11 28 -25z
m4670 22 c0 -2 -12 -14 -27 -28 l-28 -24 24 28 c23 25 31 32 31 24z m-4579
-104 c13 -16 12 -17 -3 -4 -10 7 -18 15 -18 17 0 8 8 3 21 -13z m4479 13 c0
-2 -8 -10 -17 -17 -16 -13 -17 -12 -4 4 13 16 21 21 21 13z m-2187 -833 c-35
-2 -91 -2 -125 0 -35 2 -7 3 62 3 69 0 97 -1 63 -3z"/>
</g>
</svg>
